<svg viewBox="0 0 600 600" xmlns="http://www.w3.org/2000/svg">
  <path d="M144.95 247.83 98.915 419.65c-3.813 14.293 4.66 28.992 18.969 32.844l88.258 23.637zm50.83 51.54 50.836 189.73c3.852 14.297 18.543 22.785 32.84 18.969l98.609-26.438zm36.61-203.554 126.23.016 191.11 191.11-126.22 126.25-191.12-191.12.004-126.26m-9.031-44.801c-19.746 0-35.766 16.016-35.766 35.766l-.004 153.85 216.96 216.96c5.242 5.242 12.102 7.855 18.96 7.855s13.72-2.621 18.962-7.855l151.66-151.69c10.477-10.477 10.477-27.43 0-37.906L377.185 51.03z"/>
  <path d="M293.41 130.04a26.755 26.755 0 0 0-18.969 7.856c-10.473 10.473-10.461 27.434 0 37.906 5.234 5.242 12.102 7.863 18.961 7.863s13.727-2.621 18.961-7.863c10.477-10.473 10.477-27.445 0-37.918-5.227-5.227-12.086-7.844-18.953-7.844z"/>
</svg>
