<svg viewBox="0 0 600 600" xmlns="http://www.w3.org/2000/svg">
  <path d="M98.918 419.65c-3.813 14.293 4.66 28.992 18.969 32.844l88.258 23.637-61.188-228.3zm147.702 69.46c3.852 14.297 18.543 22.785 32.84 18.969l98.609-26.438-182.29-182.27zM594.14 268 384.9 58.75a26.376 26.376 0 0 0-18.621-7.719l-142.92-.015c-19.746 0-35.766 16.016-35.766 35.766l-.004 142.94a26.343 26.343 0 0 0 7.711 18.625l209.25 209.24c5.242 5.242 12.102 7.855 18.961 7.855s13.719-2.621 18.961-7.855l151.66-151.69c10.465-10.47 10.465-27.438 0-37.902zM265.06 149.95c-15.461 0-28-12.539-28-28s12.539-28 28-28 28 12.539 28 28c0 15.469-12.539 28-28 28z"/>
</svg>
